<?xml version="1.0" encoding="utf-8"?>
<!-- Generator: Adobe Illustrator 24.0.0, SVG Export Plug-In . SVG Version: 6.00 Build 0)  -->
<svg version="1.1" id="Layer_1" xmlns="http://www.w3.org/2000/svg" xmlns:xlink="http://www.w3.org/1999/xlink" x="0px" y="0px"
	 viewBox="0 0 120 32" style="enable-background:new 0 0 120 32;" xml:space="preserve">
<style type="text/css">
	.st0{fill-rule:evenodd;clip-rule:evenodd;fill:url(#SVGID_1_);}
	.st1{fill-rule:evenodd;clip-rule:evenodd;fill:url(#SVGID_2_);}
</style>
<g>
	<g id="Logo-logo">
		<g>
			<g>
				<g>
					<g>
						
							<linearGradient id="SVGID_1_" gradientUnits="userSpaceOnUse" x1="1.113293e-02" y1="17.95" x2="120" y2="17.95" gradientTransform="matrix(1 0 0 -1 0 34)">
							<stop  offset="1" style="stop-color:#FFFFFF"/>
							<stop  offset="1" style="stop-color:#000000"/>
						</linearGradient>
						<path class="st0" d="M114.1,20.7l0.3-2.2c1.4-0.1,2.4-0.4,3.3-0.9c1-0.6,2.3-1.8,2.3-4.2c0-1.2-0.3-2.5-0.9-3.6S117.3,8,116,8
							c-0.1,0-0.1,0-0.2,0c-0.1-1.9-1.6-3.4-3.5-3.4c-1.8,0-3.5,0.1-5.3,0.4c-1.5,0.2-2.7,1.6-3,3.2c0,0.1-4,0-6.7,0
							c-2.1,0-3.2,1-3.2,1s-1-1.3-3.7-1c-1.3,0.1-2.6,0.2-3.9,0.5C86.8,7.1,87,5.4,87,3.8V3.6c0-2-1.6-3.6-3.6-3.6l0,0
							c-2.6,0-5.6,0.4-7.1,0.7c-1.7,0.4-2.8,2-2.7,3.7c0.1,1.5-0.6,6.1-0.6,6.1c-1.7-1.4-3.9-2.2-6.4-2.2c-2.3,0-4.6,0.5-6.6,1.6
							c-0.7-0.8-1.7-1.2-2.7-1.2l0,0c-2,0-3.5,0-5,0.1c-1.1,0.1-2.2,0.7-2.8,1.7c0-0.1-0.1-0.2-0.1-0.2c-0.6-1.1-1.8-1.8-3.1-1.8
							c-2.7,0-7.3,0.8-7.5,0.9c-1.6-0.7-3.3-1.1-5-1c-2.6,0-5.1,0.6-7.3,2c-0.4-5.4-5-9-11.6-9c0,0-8,0.3-9.5,0.6
							C3.8,2.2,2.6,3.7,2.8,5.5c0.1,1.3,0,2.6-0.2,3.9L0.2,24.5c-0.2,0.9-0.6,3.6,1.1,5.6c0.7,0.8,2,1.8,4.2,1.8
							c1,0,3.7-0.1,5.9-1.1c0.6-0.3,1.1-0.7,1.5-1.2c1.2,1.4,3,2.4,5.5,2.4c2.3,0,4.5-0.6,6.5-1.6c1.8,1.1,3.9,1.6,6,1.6
							c3.8,0,7.4-1.6,9.7-4.1c1.3,3.3,3.6,4,5.5,4c1.6,0,3.5-0.2,5.4-1.1c1.6-0.8,2.3-3.4,2.6-3.9c1.6,3.2,4.7,5.2,8.7,5.2
							c3.2,0,6.3-1,8.8-3c0.2,0.3,0.4,0.6,0.6,0.8c0.8,0.9,2.4,2.1,5.1,2.1c2,0,3.9-0.5,5.5-1.6c0.9,0.9,2.4,1.7,4.6,1.7
							c1.7,0,3.3-0.4,4.8-1.2c1.1,0.7,2.5,1.1,4.1,1.1c2.6,0,4.9-0.9,6.5-2.5c1.3,1.3,3.5,2.6,7.3,2.6c3.5,0,6.9-2.2,8.7-5.2
							C120,24.5,118.5,20.6,114.1,20.7L114.1,20.7z"/>
						<linearGradient id="SVGID_2_" gradientUnits="userSpaceOnUse" x1="1.113293e-02" y1="16.05" x2="120" y2="16.05">
							<stop  offset="0" style="stop-color:#0CC7EE"/>
							<stop  offset="1" style="stop-color:#0D99DD"/>
						</linearGradient>
						<path class="st1" d="M12.3,4.7C9.9,4.8,7.2,5,6.4,5.2l0,0C7.2,5,9.9,4.8,12.3,4.7L12.3,4.7z M90.4,23.8c0-0.2,0-0.5,0.1-0.7
							C90.4,23.3,90.4,23.6,90.4,23.8L90.4,23.8z M90.6,25.1c-0.1-0.1-0.1-0.3-0.1-0.4C90.5,24.8,90.5,24.9,90.6,25.1L90.6,25.1z
							 M13.8,8.3h-1.4c-0.1,0.6-0.2,1.1-0.3,1.7l-1,6.2h1.7c2.2,0,3.8-1.9,3.8-4.6C16.7,9.5,15.6,8.3,13.8,8.3L13.8,8.3z M32.7,14.9
							c-1,0-1.7,2-2.1,3.6h0.5c1.3,0,2.3-0.8,2.4-1.8c0-0.1,0-0.3,0-0.4c0-0.3-0.1-0.6-0.2-0.9C33.2,15.1,33,14.9,32.7,14.9
							L32.7,14.9z M65.7,15.2l-0.1-0.1c-0.1,0-0.2-0.1-0.3-0.1c-0.2,0-0.4,0.1-0.5,0.2c-0.1,0-0.1,0.1-0.2,0.1l-0.1,0.1
							c-0.3,0.4-0.5,0.9-0.7,1.4c0,0.1-0.1,0.2-0.1,0.3c-0.1,0.3-0.2,0.7-0.3,1s-0.1,0.6-0.2,0.9c-0.1,1-0.2,1.9-0.2,2.8
							c0,0.5,0,0.9,0.1,1.4c0,0.1,0,0.2,0,0.3c0,0.3,0.1,0.5,0.2,0.8c0,0.1,0.1,0.3,0.2,0.4c0.2,0.4,0.4,0.6,0.7,0.6
							c0.1,0,0.2,0,0.3-0.1c0.1-0.1,0.3-0.2,0.4-0.3c0.4-0.4,0.8-1.2,1.1-2.2c0.1-0.2,0.1-0.5,0.2-0.8s0.1-0.6,0.2-1
							s0.1-0.9,0.2-1.3c0-0.4,0.1-0.8,0.1-1.3c0-0.9-0.1-1.8-0.4-2.7C66,15.5,65.9,15.3,65.7,15.2L65.7,15.2z M114.1,20.7l0.3-2.2
							c1.4-0.1,2.4-0.4,3.3-0.9c1-0.6,2.3-1.8,2.3-4.2c0-1.2-0.3-2.5-0.9-3.6S117.3,8,116,8c-0.1,0-0.1,0-0.2,0
							c-0.1-1.9-1.6-3.4-3.5-3.4c-1.8,0-3.5,0.1-5.3,0.4c-1.5,0.2-2.7,1.6-3,3.2c0,0.1-4,0-6.7,0c-2.1,0-3.2,1-3.2,1s-1-1.3-3.7-1
							c-1.3,0.1-2.6,0.2-3.9,0.5C86.8,7.1,87,5.4,87,3.8V3.6c0-2-1.6-3.6-3.6-3.6l0,0c-2.6,0-5.6,0.4-7.1,0.7
							c-1.7,0.4-2.8,2-2.7,3.7c0.1,1.5-0.6,6.1-0.6,6.1c-1.7-1.4-3.9-2.2-6.4-2.2c-2.3,0-4.6,0.5-6.6,1.6c-0.7-0.8-1.7-1.2-2.7-1.2
							l0,0c-2,0-3.5,0-5,0.1c-1.1,0.1-2.2,0.7-2.8,1.7c0-0.1-0.1-0.2-0.1-0.2c-0.6-1.1-1.8-1.8-3.1-1.8c-2.7,0-7.3,0.8-7.5,0.9
							c-1.6-0.7-3.3-1.1-5-1c-2.6,0-5.1,0.6-7.3,2c-0.4-5.4-5-9-11.6-9c0,0-8,0.3-9.5,0.6C3.8,2.2,2.6,3.7,2.8,5.5
							c0.1,1.3,0,2.6-0.2,3.9L0.2,24.5c-0.2,0.9-0.6,3.6,1.1,5.6c0.7,0.8,2,1.8,4.2,1.8c1,0,3.7-0.1,5.9-1.1
							c0.6-0.3,1.1-0.7,1.5-1.2c1.2,1.4,3,2.4,5.5,2.4c2.3,0,4.5-0.6,6.5-1.6c1.8,1.1,3.9,1.6,6,1.6c3.8,0,7.4-1.6,9.7-4.1
							c1.3,3.3,3.6,4,5.5,4c1.6,0,3.5-0.2,5.4-1.1c1.6-0.8,2.3-3.4,2.6-3.9c1.6,3.2,4.7,5.2,8.7,5.2c3.2,0,6.3-1,8.8-3
							c0.2,0.3,0.4,0.6,0.6,0.8c0.8,0.9,2.4,2.1,5.1,2.1c2,0,3.9-0.5,5.5-1.6c0.9,0.9,2.4,1.7,4.6,1.7c1.7,0,3.3-0.4,4.8-1.2
							c1.1,0.7,2.5,1.1,4.1,1.1c2.6,0,4.9-0.9,6.5-2.5c1.3,1.3,3.5,2.6,7.3,2.6c3.5,0,6.9-2.2,8.7-5.2
							C120,24.5,118.5,20.6,114.1,20.7L114.1,20.7z M23.1,11.5c-0.2,2.8-1.9,5.1-4.7,6.5l0,0l2.4,6.5c0.7,1.8,1.1,2.5,1.9,3.1
							c-0.2,0.1-0.4,0.2-0.6,0.3c-1.2,0.4-2.5,0.6-3.8,0.6c-1.2,0-3-0.3-4-3.4l-1.9-5.3h-1.8l-0.8,5.1c-0.1,0.6-0.2,1.1-0.2,1.7v0.2
							c0,0.3,0.1,0.6,0.2,0.9l0,0c-1.4,0.6-3.3,0.8-4.4,0.8c-1,0-1.9-0.3-1.9-2c0-0.5,0-0.9,0.1-1.4L6,9.9c0.2-1.1,0.3-2.3,0.3-3.4
							c0,1.1-0.1,2.3-0.3,3.4c0.2-1.1,0.3-2.3,0.3-3.5c0-0.4,0-0.6,0-1.3l0,0v0.1c0.9-0.2,3.5-0.5,6-0.5c0.2,0,0.3,0,0.5,0H15
							c1.6,0,3.2,0.3,4.7,1c0.4,0.2,0.8,0.4,1.2,0.7c0.3,0.3,0.7,0.6,0.9,0.9c0.4,0.5,0.7,1,0.9,1.6c0.2,0.6,0.3,1.3,0.3,1.9
							C23.1,11.1,23.1,11.3,23.1,11.5L23.1,11.5z M36.9,12.3C36.9,12.3,36.9,12.2,36.9,12.3c-0.6-0.2-1.1-0.3-1.7-0.4
							C35.8,11.9,36.4,12,36.9,12.3C36.9,12.2,36.9,12.3,36.9,12.3L36.9,12.3z M34,11.8L34,11.8c-6.9,0-9.9,5.3-9.9,10
							C24.1,17,27.1,11.8,34,11.8L34,11.8z M32.1,21.6L32.1,21.6c-0.3,0-0.5,0-0.7,0h-0.1c-0.3,0-0.5,0-0.8,0h-0.1
							c0,0.1,0,0.2,0,0.4c0.1,1.8,0.9,3.3,2.5,3.3c0.1,0,0.3,0,0.4,0c1.6-0.2,2.5-1.3,3.3-1.3c0.4,0,0.8,0.2,1.1,0.4l0.8,0.5l0,0
							c-0.6,0.8-1.3,1.5-2.1,2c-1.6,1-3.5,1.6-5.5,1.6c-4.2,0-6.7-2.3-6.9-6.1c0-0.1,0.1-0.1,0.1-0.2s0.1-0.3,0.1-0.4l0,0
							c0-4.7,3-9.9,9.9-9.9c1,0,2,0.1,2.9,0.5l0,0c1.7,0.6,2.6,1.8,2.6,3.4C39.5,17.6,38.3,21,32.1,21.6L32.1,21.6z M51.2,24.6
							c-0.6,1-1.1,2-1.4,3c-1.1,0.6-2.4,0.7-3.7,0.7c-1.1,0-2.1-0.5-2.6-3.3l-1.6-7.9c-0.3-1.6-0.8-3.2-1.5-4.7
							c0.6-0.1,1.1-0.2,1.7-0.3l0,0c0.1,0,0.3,0,0.4,0l0,0c0.1,0,0.3,0,0.4,0l0,0c0.3,0,0.6-0.1,1-0.1c0,0,0,0,0.1,0s0.3,0,0.4,0
							c0.1,0,0.1,0,0.2,0c0.1,0,0.2,0,0.4,0c0.1,0,0.1,0,0.2,0c0.1,0,0.3,0,0.4,0c0.1,0,0.1,0,0.2,0c0.2,0,0.4,0,0.6,0
							c0.3,0.5,0.5,1,0.7,1.5c0.1,0.2,0.1,0.3,0.2,0.5c0.1,0.4,0.2,0.8,0.3,1.2l1,7.2c0.9-1.7,1.7-3.5,2.5-5.3
							c0.5-1.2,0.9-2.4,1.3-3.6c0.1-0.4,0.2-0.8,0.3-1.3c0.4,0,0.8-0.1,1.2-0.1c0.2,0,0.4,0,0.6,0c0.2,0,0.3,0,0.5,0
							c0.3,0,0.6,0,0.9,0c0.1,0,0.1,0,0.2,0c0.4,0,0.7,0,1.1,0h0.2c-0.1,1.1-0.4,2.1-0.8,3.1C55,18.4,53.2,21.5,51.2,24.6L51.2,24.6
							z M70.9,24.7L70.9,24.7c-0.6,0.7-1.2,1.4-2,1.9l0,0c-0.1,0.1-0.3,0.2-0.4,0.3c0,0,0,0-0.1,0c-0.1,0.1-0.3,0.2-0.4,0.2h-0.1
							c-0.1,0.1-0.3,0.1-0.4,0.2c0,0,0,0-0.1,0c-0.2,0.1-0.3,0.1-0.5,0.2l0,0c-0.3,0.1-0.7,0.3-1.1,0.4h-0.1c-0.1,0-0.3,0.1-0.4,0.1
							s-0.1,0-0.2,0s-0.2,0-0.4,0.1c-0.1,0-0.1,0-0.2,0s-0.2,0-0.4,0c-0.1,0-0.1,0-0.2,0c-0.1,0-0.3,0-0.4,0c-0.1,0-0.1,0-0.2,0
							c-0.2,0-0.4,0-0.6,0c-0.2,0-0.5,0-0.7,0c-0.1,0-0.1,0-0.2,0c-0.1,0-0.3,0-0.4-0.1c-0.1,0-0.2,0-0.3-0.1
							c-0.1,0-0.2-0.1-0.4-0.1c-0.1,0-0.2-0.1-0.3-0.1s-0.2-0.1-0.3-0.1s-0.2-0.1-0.2-0.1c-0.1,0-0.2-0.1-0.3-0.1s-0.2-0.1-0.2-0.1
							c-0.1-0.1-0.2-0.1-0.3-0.2c-0.1,0-0.2-0.1-0.2-0.2c-0.1-0.1-0.2-0.1-0.2-0.2c-0.1-0.1-0.1-0.1-0.2-0.2
							c-0.1-0.1-0.1-0.1-0.2-0.2c-0.1-0.1-0.1-0.1-0.2-0.2C58,26,58,26,57.9,25.9c-0.1-0.1-0.1-0.1-0.2-0.2s-0.1-0.2-0.2-0.2
							c-0.1-0.1-0.1-0.2-0.2-0.2s-0.1-0.2-0.1-0.3c0-0.1-0.1-0.2-0.1-0.3c0-0.1-0.1-0.2-0.1-0.3c0-0.1-0.1-0.2-0.1-0.3
							c0-0.1-0.1-0.2-0.1-0.3c0-0.1-0.1-0.2-0.1-0.3c0-0.1,0-0.2-0.1-0.3c-0.1-0.3-0.1-0.6-0.1-1l0,0c0-0.2,0-0.5,0-0.7
							c0-3.5,1.6-6.5,4.2-8.3l0,0c0.4-0.3,0.9-0.5,1.3-0.8l0,0c0.5-0.2,0.9-0.4,1.4-0.6h0.1c0.2-0.1,0.5-0.1,0.7-0.2h0.1
							c0.2,0,0.4-0.1,0.7-0.1h0.1c0.2,0,0.5-0.1,0.7-0.1H66c0.2,0,0.5,0,0.8,0c0.2,0,0.4,0,0.6,0c0.1,0,0.1,0,0.2,0
							c0.2,0,0.3,0,0.5,0.1h0.1c0.2,0,0.4,0.1,0.5,0.1s0.1,0,0.2,0.1c0.1,0,0.3,0.1,0.4,0.1s0.1,0,0.2,0.1c0.2,0.1,0.3,0.1,0.5,0.2
							c0.1,0,0.1,0.1,0.2,0.1c0.1,0.1,0.2,0.1,0.3,0.2c0.1,0,0.1,0.1,0.2,0.1c0.1,0.1,0.2,0.1,0.2,0.2c0.1,0.1,0.2,0.2,0.3,0.3
							c0.1,0.1,0.1,0.1,0.2,0.2c0.1,0.1,0.1,0.1,0.2,0.2l0.1,0.1c0.2,0.2,0.3,0.4,0.4,0.6l0,0c0.1,0.1,0.1,0.2,0.2,0.3
							c0,0,0,0.1,0.1,0.1c0.5,1.1,0.8,2.2,0.8,3.4C73,20.6,72.3,22.9,70.9,24.7L70.9,24.7z M83.3,6.1c-0.1,0.9-0.2,1.8-0.4,2.7
							l-0.7,4.5l-1.8,11.3c0,0.1,0,0.3,0,0.4v0.1c0,0.1,0,0.2,0,0.3c0,0,0,0,0,0.1s0,0.1,0.1,0.2v0.1c0,0.1,0.1,0.1,0.1,0.2
							c0,0,0,0,0.1,0.1l0.1,0.1c0,0,0,0,0.1,0.1c0.3,0.2,0.5,0.3,0.9,0.2c-0.3,0.4-0.6,0.7-0.9,0.9l-0.1,0.1
							c-0.1,0.1-0.2,0.1-0.3,0.2c-0.1,0-0.1,0.1-0.2,0.1s-0.2,0.1-0.3,0.1c-0.2,0.1-0.3,0.1-0.5,0.2c-0.1,0-0.1,0-0.2,0.1
							c-0.1,0-0.2,0.1-0.4,0.1c-0.1,0-0.2,0-0.2,0c-0.1,0-0.3,0-0.4,0.1c-0.1,0-0.1,0-0.2,0c-0.2,0-0.4,0-0.7,0l0,0
							c-0.1,0-0.2,0-0.3,0H77c-0.1,0-0.1,0-0.2,0h-0.1c-0.1,0-0.1,0-0.1,0h-0.1h-0.1h-0.1h-0.1c-0.1,0-0.1,0-0.2,0h-0.1
							c-0.1,0-0.1,0-0.2-0.1c0,0,0,0-0.1,0c-0.3-0.1-0.5-0.3-0.7-0.6l0,0c0-0.1-0.1-0.1-0.1-0.2c0,0,0,0,0-0.1s-0.1-0.1-0.1-0.2
							c0,0,0,0,0-0.1s0-0.1-0.1-0.2v-0.1c0-0.1,0-0.2,0-0.3c0,0,0,0,0-0.1s0-0.2,0-0.3c0-0.3,0-0.6,0.1-0.9l2.6-16.1
							C77,8.7,77,8.5,77,8.3c0.1-0.7,0.2-1.5,0.2-2.2c0-0.6,0-1.2,0-1.8c0.1,0,0.2,0,0.3-0.1s0.2,0,0.4-0.1c0.2,0,0.4-0.1,0.7-0.1
							c0.1,0,0.2,0,0.4,0c0.4,0,0.8-0.1,1.2-0.1c0.3,0,0.6,0,0.9-0.1c0.8,0,1.6-0.1,2.3-0.1c0,0.5,0,1.1-0.1,1.8
							C83.3,5.7,83.3,5.9,83.3,6.1L83.3,6.1z M100.6,26.5c-0.8,1.1-2.4,1.9-4.3,1.9c-0.2,0-0.4,0-0.6,0s-0.4-0.1-0.6-0.1
							s-0.4-0.1-0.5-0.2c-0.9-0.4-1.4-1.3-1.1-3v-0.3c-0.1,0.2-0.2,0.3-0.3,0.5c-0.2,0.3-0.4,0.6-0.7,0.9c-0.2,0.3-0.5,0.5-0.8,0.7
							c-0.1,0.1-0.3,0.2-0.4,0.3c-0.3,0.2-0.5,0.4-0.8,0.5c-0.5,0.3-1.1,0.5-1.6,0.6c-0.2,0.1-0.5,0.1-0.8,0.1c-0.2,0-0.4,0-0.7,0
							c-0.1,0-0.3,0-0.4,0h-0.1c-0.1,0-0.2,0-0.2,0c-0.1,0-0.1,0-0.2,0s-0.1,0-0.2,0s-0.1,0-0.2-0.1H86c-1.4-0.6-1.9-2.4-1.5-4.6
							l1-6.4c0-0.2,0.1-0.4,0.1-0.5s0-0.1,0-0.2s0-0.2,0-0.3c0-0.1,0-0.2,0-0.2c0-0.1,0-0.2,0-0.2c0-0.3,0.1-0.7,0.1-1v-0.1
							c0-0.1,0-0.2,0-0.4v-0.1c0-0.1,0-0.3,0-0.4c0-0.4,0-0.7,0-1.1c0.1,0,0.2,0,0.2-0.1c0.1,0,0.1,0,0.2,0h0.1c0.1,0,0.1,0,0.2,0
							h0.1c0.1,0,0.1,0,0.2,0h0.1c0.1,0,0.1,0,0.2,0c0,0,0.1,0,0.2,0s0.1,0,0.2,0s0.1,0,0.2,0s0.1,0,0.2,0H88c0.1,0,0.1,0,0.2,0h0.2
							c0.1,0,0.1,0,0.2,0s0.1,0,0.2,0H89h0.2c0.1,0,0.2,0,0.2,0h0.2c0.1,0,0.2,0,0.3,0c0.1,0,0.1,0,0.2,0s0.2,0,0.3,0
							c0.1,0,0.1,0,0.2,0s0.2,0,0.3,0c0.1,0,0.1,0,0.2,0s0.2,0,0.3,0c0.1,0,0.1,0,0.2,0c0.2,0,0.3,0,0.5,0c0,1.4-0.2,3.3-0.5,5.1
							l-0.9,5.4c0,0.1,0,0.2,0,0.3c0,0.1,0,0.2,0,0.3c0,0.2,0,0.5,0,0.7l0,0c0,0.3,0,0.6,0,0.8c0,0.1,0.1,0.3,0.1,0.4
							s0.1,0.2,0.2,0.2h0.1c0.2,0,0.5-0.2,0.9-0.6c0.5-0.6,1-1.3,1.4-2c0.1-0.3,0.3-0.6,0.4-0.9s0.3-0.7,0.4-1
							c0.1-0.2,0.1-0.4,0.2-0.5l0.5-3.1c0.1-0.4,0.1-0.8,0.2-1.2c0.1-0.6,0.1-1.2,0.2-1.7c0.1-0.6,0.1-1.2,0.1-1.9
							c0.1,0,0.1,0,0.2,0c0,0,0,0,0.1,0h0.2H96h0.1h0.1c0.1,0,0.1,0,0.2,0h0.1h0.1c0.1,0,0.1,0,0.2,0h0.1c0.1,0,0.1,0,0.2,0l0.1,0.1
							c0.3,0,0.6,0,0.9,0l0,0c0.1,0,0.2-0.1,0.3-0.1h0.1c0.1,0,0.2,0,0.3,0h0.1c0.1,0,0.2,0,0.3,0h0.1c0.1,0,0.2,0,0.3,0h0.1
							c0.1,0,0.2,0,0.3,0c0,0,0-0.1,0.1-0.1s0.2-0.1,0.4-0.1l0,0c0.3,0,0.6,0.1,0.9,0.1c-0.1,1.7-0.3,3.4-0.5,5.1l-1.2,7.6
							C99.1,25.9,99.6,26.5,100.6,26.5L100.6,26.5z M104.1,24.4c0-0.4,0-0.7,0.1-1.1l1.3-7.9c-0.2,0-0.4,0.1-0.5,0.1
							c-0.3,0.1-0.4,0.1-0.6,0.1s-0.4,0.1-0.6,0.1c-0.2-1.1-0.2-2.3,0-3.5c0.3,0,0.5,0,0.9,0c0.2,0,0.3,0,0.4,0s0.2,0,0.4,0
							c0.1,0,0.3,0,0.4,0s0.2,0,0.3,0c0.4-1.2,1.1-2.2,1.4-3.6c0.4-0.1,0.9-0.1,1.4-0.2c0.2,0,0.4,0,0.5-0.1c0.2,0,0.4,0,0.6,0
							c0.6,0,1.3-0.1,2.1-0.1c0,1.1-0.2,2.4-0.4,4h1.1c1.8,0,2.4-0.2,3-0.6c0.3,0.6,0.5,1.2,0.5,1.8c0,0.9-0.3,1.5-3,1.5
							c-0.2,0-0.4,0-0.6,0h-1.5l-1.2,7.9c0,0.2,0,0.2,0,0.2c0,0.1,0,0.2,0,0.2c0,1.1,0.5,1.9,1.4,1.9c1.3,0,1.6-1,2.1-1
							c0.4,0,0.8,0.2,1.1,0.4l0.8,0.5c-0.9,1.7-3.1,3.3-5.6,3.3C106.3,28.5,104.2,26.9,104.1,24.4z"/>
					</g>
				</g>
			</g>
		</g>
	</g>
</g>
</svg>
